<svg width="270" height="120" fill="none" xmlns="http://www.w3.org/2000/svg"><rect width="270" height="120" rx="4" fill="#F5F4FA"/><path d="M167.316 73.3385l-18.469-18.6048 2.05-10.0964c.528.2065 1.091.3144 1.659.3185h.014c2.608.0308 4.747-2.0584 4.778-4.6665.031-2.6081-2.059-4.7473-4.667-4.7782-2.608-.0308-4.747 2.0584-4.778 4.6665-.007.5581.086 1.1129.273 1.6387l-10.85 1.3242L119.628 25.35c-.218-.2215-.514-.3475-.824-.35-.306.0016-.6.1235-.817.3395l-3.308 3.29c-.456.4556-.456 1.1941 0 1.6497l1.78 1.806c-6.897 12.6829-4.657 28.3889 5.511 38.6376.094.0893.202.1615.32.2135-.074.3948-.112.7954-.114 1.197v13.5334h-14c-3.22.0038-5.83 2.6133-5.834 5.8333v2.3333c0 .6443.523 1.1667 1.167 1.1667h53.667c.644 0 1.166-.5224 1.166-1.1667V91.5c-.004-3.22-2.613-5.8295-5.833-5.8333h-14v-5.9979c2.193.46 4.428.6945 6.669.7 5.377-.0058 10.668-1.3463 15.4-3.9013l1.789 1.8002c.217.2215.514.3475.824.35.306-.0016.599-.1236.817-.3395l3.308-3.29c.456-.4556.456-1.1941 0-1.6497zm-16.391-34.7037c.913-.9088 2.391-.9047 3.299.0089.909.9137.905 2.3911-.009 3.2998-.437.435-1.029.6791-1.646.679h-.007c-1.288-.0067-2.328-1.0567-2.321-2.3454.003-.6169.251-1.2072.688-1.6423h-.004zm-2.747 7.6662l-1.309 6.4435-2.571-2.5865 3.88-3.857zm-1.325-1.9728l-4.2 4.1755-3.249-3.2667 7.449-.9088zM152.509 88c1.933 0 3.5 1.567 3.5 3.5v1.1667h-51.333V91.5c0-1.933 1.567-3.5 3.5-3.5h44.333zm-16.333-4.6667v2.3334h-11.667v-2.3334h11.667zM124.509 81v-8.8667c0-2.8303 2.617-5.1333 5.833-5.1333 3.217 0 5.834 2.303 5.834 5.1333V81h-11.667zm14-3.71v-5.1567c0-4.1171-3.663-7.4666-8.167-7.4666-2.911-.0447-5.634 1.4374-7.177 3.9071-8.876-9.3489-10.875-23.2863-4.985-34.7531l40.692 40.9248c-6.283 3.1964-13.486 4.0963-20.363 2.5445zm24.695-1.4957l-1.644-1.6531-42.768-43.0255-1.651-1.6544 1.651-1.645L136.15 45.272c.008 0 .013.0152.021.021l28.688 28.8563-1.655 1.645z" fill="#212121"/><path d="M130.353 69.3333h-.011c-1.933-.0029-3.502 1.5617-3.505 3.4948-.003 1.933 1.562 3.5023 3.495 3.5052h.01c1.933.0029 3.503-1.5617 3.505-3.4947.003-1.9331-1.561-3.5024-3.494-3.5053zm.816 4.3272c-.219.2184-.517.3407-.827.3395-.644-.0034-1.164-.5284-1.16-1.1727.001-.3084.125-.6036.344-.8211.217-.216.51-.3379.816-.3395.645.0033 1.164.5283 1.161 1.1726-.002.3084-.126.6036-.344.8212h.01z" fill="#2196F3"/></svg>