<svg width="270" height="120" fill="none" xmlns="http://www.w3.org/2000/svg"><rect width="270" height="120" rx="4" fill="#F5F4FA"/><path d="M169.943 34.8964c-.137-.4212-.501-.7291-.941-.7934l-4.179-.6079-1.87-3.787c-.392-.798-1.7-.798-2.092 0l-1.87 3.787-4.18.608c-.439.0642-.803.3711-.942.7934-.137.4224-.024.8867.295 1.1959l3.025 2.9483-.714 4.1627c-.074.4375.105.8797.463 1.1411.363.2637.837.2963 1.23.0886l3.738-1.9659 3.738 1.9659c.171.0898.358.1341.544.1341.241 0 .483-.0746.686-.2228.359-.2613.539-.7036.463-1.1411l-.714-4.1628 3.025-2.9482c.317-.3104.432-.7736.295-1.1959zm-5.387 2.9027c-.274.2672-.401.6545-.335 1.0325l.417 2.4372-2.188-1.1503c-.17-.0899-.357-.1342-.544-.1342-.186 0-.372.0443-.544.1342l-2.188 1.1503.417-2.4372c.066-.378-.06-.7641-.335-1.0325l-1.772-1.7266 2.448-.3559c.38-.0548.708-.294.879-.6382l1.094-2.2167 1.094 2.2167c.171.3441.498.5834.879.6382l2.447.3559-1.769 1.7266zM157.167 69.8923h-2.333v2.3334h2.333v-2.3334zM157.167 74.5591h-2.333v2.3334h2.333v-2.3334zM159.5 72.2257h-2.333v2.3334h2.333v-2.3334zM154.834 72.2257H152.5v2.3334h2.334v-2.3334zM149 82.7259h-2.333v2.3334H149v-2.3334zM149 87.3926h-2.333v2.3334H149v-2.3334zM151.334 85.0593H149v2.3334h2.334v-2.3334zM146.667 85.0593h-2.334v2.3334h2.334v-2.3334zM135 78.0592h-2.333v2.3334H135v-2.3334zM135 82.7259h-2.333v2.3334H135v-2.3334zM137.333 80.3925H135v2.3334h2.333v-2.3334zM132.667 80.3925h-2.334v2.3334h2.334v-2.3334zM112.833 38.3918H110.5v2.3334h2.333v-2.3334zM112.833 43.0587H110.5v2.3334h2.333v-2.3334zM115.166 40.7253h-2.333v2.3334h2.333v-2.3334zM110.5 40.7253h-2.334v2.3334h2.334v-2.3334z" fill="#2196F3"/><path d="M154.064 55.9738c-.629-.8482-1.552-1.3941-2.6-1.5412-1.052-.1493-2.091.1271-2.931.77l-2.738 2.0988-.001.0012-4.151 3.0999-2.971-1.183c5.297-2.3765 8.999-7.6745 8.999-13.8253 0-8.3628-6.831-15.1668-15.227-15.1668-8.397 0-15.228 6.804-15.228 15.1668 0 3.0311.907 5.8498 2.45 8.2216l-6.046-.0525h-.01c-.019 0-.034.0093-.051.0105-.116.0047-.229.0281-.34.0677-.028.0105-.057.0164-.084.0291-.014.0059-.028.007-.042.014l-7.072 3.4918c-.001 0-.003 0-.003.0011l-4.141 1.9918c-.046.0198-.093.0466-.138.077-1.651 1.0989-2.2133 3.2573-1.309 5.0213.482.938 1.302 1.6288 2.31 1.9449.389.1212.785.1808 1.18.1808.633 0 1.261-.1551 1.836-.4619l3.036-1.6147 4.952-2.5574 2.968-.0175-11.904 11.8466c-.001.0012-.002.0012-.003.0023l-2.929 2.9167c-.691.6884-1.072 1.6018-1.072 2.5761 0 .973.381 1.8888 1.072 2.5784.711.707 1.646 1.0617 2.58 1.0617.936 0 1.869-.3547 2.582-1.0617l2.875-2.8631 3.808-2.8432 1.97 1.9623-3.853 3.8373c-.002.0012-.003.0012-.004.0023l-2.928 2.9166c-.692.6884-1.073 1.6019-1.073 2.5761 0 .9731.381 1.8888 1.073 2.5785.71.7069 1.646 1.0616 2.58 1.0616.935 0 1.871-.3547 2.582-1.0616l2.93-2.9167 4.686-4.6667c.001-.0012.001-.0023.003-.0036l2.208-2.1875-.008-.0082c.014-.0139.034-.0187.048-.0338l11.3-12.3773 7.593 1.0804c.055.0082.11.0116.165.0116.141 0 .277-.0338.409-.084.039-.0139.072-.0326.109-.0512.042-.0211.086-.0327.126-.0595l7.029-4.6667c.026-.0175.04-.0455.064-.0641.028-.0222.063-.0315.089-.0561l2.781-2.6052c1.447-1.356 1.647-3.5773.464-5.1663zm-49.404 7.8984c-.379.203-.809.2438-1.221.1132-.409-.1271-.74-.4061-.934-.7829-.352-.686-.148-1.5214.469-1.9728l2.874-1.3826.692 2.0219.29.8493-2.17 1.1539zm7.65-3.9981l-3.387 1.75-.558-1.6334-.402-1.1737 4.434-2.1888-.087 3.2459zm33.03-14.4822c0 2.009-.479 3.9038-1.31 5.5989l-9.147-4.1546c-.095-1.2541-.746-2.352-1.724-3.0357l3.202-10.632c5.202 1.6545 8.979 6.5067 8.979 12.2234zm-25.788 0c0-7.076 5.784-12.8336 12.894-12.8336.553 0 1.094.0467 1.63.1143l-3.133 10.3988c-.042-.0013-.081-.0129-.124-.0129-2.259 0-4.097 1.8317-4.097 4.0834s1.838 4.0835 4.097 4.0835c1.519 0 2.831-.8388 3.539-2.0663l8.449 3.8385c-2.351 3.164-6.113 5.2279-10.361 5.2279-7.11 0-12.894-5.7576-12.894-12.8336zm13.029 1.75c0 .9649-.791 1.7501-1.762 1.7501-.972 0-1.763-.7852-1.763-1.7501 0-.9648.791-1.75 1.763-1.75.971 0 1.762.7852 1.762 1.75zm-27.189 32.8656c-.517.5121-1.354.511-1.869.0012-.249-.2486-.385-.5763-.385-.9252 0-.3477.136-.6755.385-.9216l2.104-2.0967 1.862 1.854-2.097 2.0883zm7.03 8.1668c-.517.5122-1.354.5134-1.87.0013-.249-.2486-.385-.5763-.385-.9252 0-.3477.136-.6756.385-.9217l2.106-2.0977.881.8763.982.9777-2.099 2.0893zm7.616-7.5881c-.001.0011-.002.0011-.003.0023l-3.861 3.8501-.881-.8763-.982-.9777 3.857-3.8395v-.0011c.001-.0012.002-.0012.004-.0023.087-.0875.142-.1925.196-.2963.015-.0303.044-.056.057-.0875.036-.0898.042-.1866.056-.2812.007-.0538.03-.1038.03-.1588 0-.0782-.028-.1539-.044-.231-.014-.07-.014-.1412-.041-.2088-.044-.1096-.12-.2064-.199-.301-.023-.0257-.031-.0584-.055-.0829h-.002c-.001-.0011-.001-.0036-.002-.0046l-3.515-3.5001c-.037-.0373-.085-.0525-.127-.0839-.062-.0479-.121-.0922-.19-.1261-.067-.0327-.135-.0525-.205-.0712-.074-.0211-.147-.0374-.225-.0432-.071-.0047-.137.0023-.208.0105-.079.0093-.152.0198-.228.0443-.074.0234-.139.0595-.206.098-.044.0245-.093.0327-.133.063l-3.88 2.8958-1.97-1.9624 5.248-5.2197 9.538 9.3814-2.029 2.0102zm14.916-15.349c-.033-.0046-.065.0082-.099.0059-.085-.0046-.166.0012-.252.0152-.066.0116-.129.0245-.192.0466-.075.0257-.142.0607-.211.1027-.066.0396-.125.0816-.182.1341-.028.0245-.062.0362-.088.0641l-10.277 11.2563-9.468-9.3114 6.197-6.1648c.457-.455.459-1.1935.004-1.6509-.23-.2298-.532-.343-.834-.3418v-.0011l-4.854.0292.061-3.5164 6.79.0584c2.768 2.8304 6.627 4.5956 10.897 4.5956.957 0 1.89-.0991 2.799-.2684.087.07.174.1413.283.1856l5.272 2.1.333 1.659.39 1.9366-6.569-.9345zm8.84.3897l-.684-3.4079 3.164-2.3626.828 1.099 1.243 1.6497-4.551 3.0218zm8.211-6.1928l-1.832 1.7174-2.037-2.7044 1.818-1.3941c.34-.2613.768-.3675 1.188-.3127.422.0595.796.28 1.05.6218.474.6382.393 1.5284-.187 2.072z" fill="#212121"/><path d="M129.755 65.5651l-4.688-4.6667c-.454-.4538-1.191-.4538-1.646 0l-4.687 4.6667c-.219.2205-.343.5168-.343.8271 0 .3104.122.6079.343.8272l4.687 4.6667c.227.2263.526.3395.823.3395.298 0 .596-.1132.823-.3395l4.688-4.6667c.219-.2193.344-.5168.344-.8272 0-.3103-.124-.6078-.344-.8271zm-5.511 3.8477l-3.033-3.0206 3.033-3.0205 3.035 3.0205-3.035 3.0206zM137.547 36.0923l-.564 2.2658c.155.0385 3.801.9882 3.801 4.7006h2.334c0-4.4126-3.644-6.4869-5.571-6.9664zM143.118 45.3919h-2.334v2.3334h2.334v-2.3334z" fill="#212121"/></svg>