<svg width="44" height="44" fill="none" xmlns="http://www.w3.org/2000/svg">
<path d="M44 22c0 6.0751-2.4624 11.5751-6.4436 15.5564C33.5751 41.5376 28.0751 44 22 44c-6.0751 0-11.5751-2.4624-15.55635-6.4436C2.46243 33.5751 0 28.0751 0 22c0-6.0751 2.46243-11.5751 6.44365-15.55635C10.4249 2.46243 15.9249 0 22 0c6.0751 0 11.5751 2.46243 15.5564 6.44365C41.5376 10.4249 44 15.9249 44 22z" 
fill="#fff" fill-opacity=".1"/><g clip-path="url(#clip0)">
<path d="M25.3308 15.3208h1.8259v-3.18c-.315-.0433-1.3984-.1408-2.66-.1408-2.6325 0-4.4359 1.6558-4.4359 4.6992V19.5h-2.905v3.555h2.905V32h3.5617v-8.9442H26.41l.4425-3.555h-3.2308v-2.4491c.0008-1.0275.2775-1.7309 1.7091-1.7309z" 
fill="#fff"/></g><defs>
<clipPath id="clip0">
<path fill="#fff" transform="translate(12 12)" d="M0 0h20v20H0z"/>
</clipPath></defs></svg>