<svg width="44" height="44" fill="none" xmlns="http://www.w3.org/2000/svg"><path d="M44 21.9999c0 6.0752-2.4624 11.5752-6.4436 15.5564-3.9813 3.9812-9.4813 6.4436-15.5564 6.4436-6.0751 0-11.5751-2.4624-15.55635-6.4436C2.46243 33.5751 0 28.0751 0 21.9999c0-6.0751 2.46243-11.5751 6.44365-15.55631C10.4249 2.46237 15.9249-.00006104 22-.00006104c6.0751 0 11.5751 2.46243104 15.5564 6.44365104C41.5376 10.4248 44 15.9248 44 21.9999z" fill="#fff"/><g clip-path="url(#clip0)" fill="#AFB1B8"><path d="M31.995 32v-.0008H32v-7.335c0-3.5883-.7725-6.3525-4.9675-6.3525-2.0167 0-3.37 1.1067-3.9225 2.1558h-.0583v-1.8208h-3.9775v13.3525h4.1416v-6.6117c0-1.7408.33-3.4241 2.4859-3.4241 2.1241 0 2.1558 1.9866 2.1558 3.5358V32h4.1375zM12.33 18.6475h4.1467V32H12.33V18.6475zM14.4017 12C13.0758 12 12 13.0758 12 14.4017c0 1.3258 1.0758 2.4241 2.4017 2.4241 1.3258 0 2.4016-1.0983 2.4016-2.4241C16.8025 13.0758 15.7267 12 14.4017 12z"/></g><defs><clipPath id="clip0"><path fill="#fff" transform="translate(12 12)" d="M0 0h20v20H0z"/></clipPath></defs></svg>