<svg width="44" height="44" fill="none" xmlns="http://www.w3.org/2000/svg"><path d="M44 22c0 6.0751-2.4624 11.5751-6.4436 15.5564C33.5751 41.5376 28.0751 44 22 44c-6.0751 0-11.5751-2.4624-15.55635-6.4436C2.46243 33.5751 0 28.0751 0 22c0-6.0751 2.46243-11.5751 6.44365-15.55635C10.4249 2.46243 15.9249 0 22 0c6.0751 0 11.5751 2.46243 15.5564 6.44365C41.5376 10.4249 44 15.9249 44 22z" fill="#fff" fill-opacity=".1"/><g clip-path="url(#clip0)" fill="#fff"><path d="M31.995 32.0001v-.0008H32v-7.335c0-3.5884-.7725-6.3525-4.9675-6.3525-2.0167 0-3.37 1.1066-3.9225 2.1558h-.0583v-1.8208h-3.9775v13.3525h4.1416v-6.6117c0-1.7408.33-3.4242 2.4859-3.4242 2.1241 0 2.1558 1.9867 2.1558 3.5359v6.5008h4.1375zM12.33 18.6475h4.1467V32H12.33V18.6475zM14.4017 12C13.0758 12 12 13.0758 12 14.4017c0 1.3258 1.0758 2.4241 2.4017 2.4241 1.3258 0 2.4016-1.0983 2.4016-2.4241C16.8025 13.0758 15.7267 12 14.4017 12z"/></g><defs><clipPath id="clip0"><path fill="#fff" transform="translate(12 12)" d="M0 0h20v20H0z"/></clipPath></defs></svg>