<svg width="44" height="44" fill="none" xmlns="http://www.w3.org/2000/svg"><path d="M44 22c0 6.0751-2.4624 11.5751-6.4436 15.5564C33.5751 41.5376 28.0751 44 22 44c-6.0751 0-11.5751-2.4624-15.55635-6.4436C2.46243 33.5751 0 28.0751 0 22c0-6.0751 2.46243-11.5751 6.44365-15.55635C10.4249 2.46243 15.9249 0 22 0c6.0751 0 11.5751 2.46243 15.5564 6.44365C41.5376 10.4249 44 15.9249 44 22z" fill="#fff" fill-opacity=".1"/><g clip-path="url(#clip0)" fill="#fff"><path d="M31.9804 17.8801c-.0468-1.0627-.2187-1.7933-.4649-2.4264-.2539-.6719-.6446-1.2736-1.1565-1.7737-.5001-.5079-1.1057-.9026-1.7699-1.1526-.6367-.2461-1.3635-.418-2.4262-.4648C25.0923 12.0118 24.7524 12 22.0371 12c-2.7154 0-3.0553.0118-4.1219.0586-1.0627.0469-1.7933.2189-2.4262.4649-.6721.2539-1.2737.6446-1.7739 1.1565-.5079.5001-.9024 1.1057-1.1525 1.7699-.2462.6369-.418 1.3635-.4649 2.4262-.0508 1.0706-.0626 1.4105-.0626 4.1259 0 2.7153.0118 3.0552.0586 4.1219.0469 1.0626.2189 1.7932.4651 2.4263.2539.6719.6484 1.2736 1.1563 1.7737.5002.5079 1.1058.9026 1.7699 1.1526.6369.2461 1.3635.418 2.4264.4648 1.0665.047 1.4065.0586 4.1219.0586 2.7153 0 3.0552-.0116 4.1219-.0586 1.0626-.0468 1.7932-.2187 2.4261-.4648 1.3441-.5197 2.4068-1.5824 2.9265-2.9263.246-.6369.418-1.3637.4648-2.4263.0469-1.0667.0586-1.4066.0586-4.1219 0-2.7154-.0039-3.0553-.0508-4.1219zm-1.801 8.1656c-.0431.9768-.2071 1.5042-.3439 1.8558-.336.8713-1.0276 1.5628-1.8988 1.8989-.3517.1368-.8829.3008-1.8559.3437-1.0549.047-1.3712.0586-4.0398.0586-2.6685 0-2.9888-.0116-4.0399-.0586-.9768-.0429-1.5042-.2069-1.8558-.3437-.4336-.1602-.8283-.4142-1.1486-.7463-.3321-.3243-.5861-.715-.7463-1.1486-.1368-.3516-.3008-.883-.3437-1.8558-.047-1.0549-.0586-1.3714-.0586-4.04 0-2.6685.0116-2.9888.0586-4.0398.0429-.9767.2069-1.5042.3437-1.8558.1602-.4337.4142-.8282.7502-1.1487.3242-.3321.7149-.5861 1.1486-.7462.3517-.1367.8831-.3008 1.8559-.3438 1.0549-.0469 1.3714-.0586 4.0398-.0586 2.6724 0 2.9888.0117 4.0399.0586.9767.043 1.5042.2071 1.8558.3438.4336.1601.8283.4141 1.1486.7462.3321.3243.5861.715.7463 1.1487.1368.3516.3008.8829.3439 1.8558.0468 1.0549.0586 1.3713.0586 4.0398 0 2.6686-.0118 2.9811-.0586 4.036z"/><path d="M22.0371 16.8641c-2.8364 0-5.1377 2.3012-5.1377 5.1378 0 2.8365 2.3013 5.1377 5.1377 5.1377 2.8366 0 5.1377-2.3012 5.1377-5.1377 0-2.8366-2.3011-5.1378-5.1377-5.1378zm0 8.4705c-1.8401 0-3.3327-1.4925-3.3327-3.3327 0-1.8403 1.4926-3.3328 3.3327-3.3328 1.8403 0 3.3327 1.4925 3.3327 3.3328 0 1.8402-1.4924 3.3327-3.3327 3.3327zM28.5775 16.6611c0 .6624-.537 1.1994-1.1995 1.1994-.6624 0-1.1995-.537-1.1995-1.1994 0-.6625.5371-1.1994 1.1995-1.1994.6625 0 1.1995.5369 1.1995 1.1994z"/></g><defs><clipPath id="clip0"><path fill="#fff" transform="translate(12 12)" d="M0 0h20v20H0z"/></clipPath></defs></svg>