<svg width="270" height="120" fill="none" xmlns="http://www.w3.org/2000/svg"><rect width="270" height="120" rx="4" fill="#F5F4FA"/><g clip-path="url(#clip0)"><path d="M132.65 57.7351h2.332v10.4945h-2.332V57.7351zM141.978 62.3993h2.332v5.8303h-2.332v-5.8303zM123.321 65.8975h2.332v2.3321h-2.332v-2.3321zM116.325 64.7314h2.332v3.4981h-2.332v-3.4981z" fill="#2196F3"/><path d="M103.498 86.8865h55.971c1.932 0 3.498-1.5663 3.498-3.4982v-4.6642c0-1.9319-1.566-3.4982-3.498-3.4982h-1.166V46.1468l6.623-6.2744c1.537.7579 3.398.2978 4.404-1.0909 1.007-1.3881.866-3.2994-.333-4.5247-1.199-1.2253-3.107-1.408-4.517-.4327-1.41.9759-1.911 2.8257-1.187 4.3795l-4.99 4.7309v-2.6903c0-1.9318-1.567-3.4981-3.498-3.4981h-46.643c-1.931 0-3.498 1.5663-3.498 3.4981v34.9817h-1.166c-1.932 0-3.498 1.5663-3.498 3.4982v4.6642c0 1.9319 1.566 3.4982 3.498 3.4982zM166.465 35.58c.644 0 1.166.5221 1.166 1.1661 0 .6439-.522 1.166-1.166 1.166-.644 0-1.166-.5221-1.166-1.166 0-.644.522-1.1661 1.166-1.1661zm-59.469 4.6642c0-.6439.522-1.166 1.166-1.166h46.643c.644 0 1.166.5221 1.166 1.166v4.8971l-2.332 2.216v-4.781c0-.6439-.523-1.166-1.166-1.166h-41.978c-.644 0-1.167.5221-1.167 1.166v29.1514c0 .644.523 1.1661 1.167 1.1661h41.978c.643 0 1.166-.5221 1.166-1.1661V50.5651l2.332-2.2097v26.8705h-48.975V40.2442zm10.495 15.1588c-1.578-.0046-2.963 1.0465-3.383 2.5672-.419 1.5208.23 3.1338 1.587 3.9389 1.356.8051 3.084.6029 4.218-.4942l4.053 2.0337c.471.2358 1.042.1253 1.392-.2681l8.616-9.6934 8.47 6.3466c.455.3405 1.089.3041 1.501-.0859l7.361-6.973v17.7869h-39.645V43.7424h39.645v5.8195l-8.25 7.8128-8.541-6.4031c-.485-.3632-1.167-.2949-1.571.1577l-8.734 9.8278-3.265-1.6329c.024-.1401.038-.2813.044-.4231 0-1.9318-1.566-3.4981-3.498-3.4981zm1.166 3.4981c0 .644-.522 1.1661-1.166 1.1661-.644 0-1.166-.5221-1.166-1.1661 0-.6439.522-1.166 1.166-1.166.644 0 1.166.5221 1.166 1.166zm6.996 18.6569h11.661v1.1661c0 .6439-.522 1.166-1.166 1.166h-9.329c-.644 0-1.166-.5221-1.166-1.166V77.558zm-23.321 1.1661c0-.644.522-1.1661 1.166-1.1661h19.823v1.1661c0 1.9318 1.566 3.4982 3.498 3.4982h9.329c1.932 0 3.498-1.5664 3.498-3.4982V77.558h19.823c.644 0 1.166.5221 1.166 1.1661v4.6642c0 .644-.522 1.1661-1.166 1.1661h-55.971c-.644 0-1.166-.5221-1.166-1.1661v-4.6642z" fill="#212121"/></g><defs><clipPath id="clip0"><path fill="#fff" transform="translate(100 25)" d="M0 0h70v70H0z"/></clipPath></defs></svg>